<svg xmlns="http://www.w3.org/2000/svg" width="599.384" height="643.357" viewBox="0 0 599.384 643.357"><path d="M-3607.732,36.464a23.844,23.844,0,0,1-8.372-4.277,20.659,20.659,0,0,1-6.005-7.735,17.445,17.445,0,0,1-2-9.282,28.1,28.1,0,0,1,2.366-9.1,40.223,40.223,0,0,1,6.007-9.827,62.4,62.4,0,0,1,8.007-8.008q8.008-6.734,15.926-13.286t16.106-13.1a29.957,29.957,0,0,1,3.277-2.548q1.637-1.092,3.275-2.367a38.7,38.7,0,0,1-17.836-1.638q-12.922-4.55-14.014-18.564a44.3,44.3,0,0,1,.637-11.011q.268-1.437.607-2.841-4.145,6.026-8.707,11.759a99.016,99.016,0,0,1-15.288,15.38,43.606,43.606,0,0,1-8.008,5.1,18.25,18.25,0,0,1-8.828,1.729,19.5,19.5,0,0,1-8.28-2.367,20.348,20.348,0,0,1-6.552-5.733,18.379,18.379,0,0,1-3.458-8.372,38.688,38.688,0,0,1,2-21.295q3.823-11.1,8.1-21.839t8.646-21.658a51.226,51.226,0,0,1,2.093-5.006,38.251,38.251,0,0,1,2.638-4.64q2.367-3.641,5.734-4t6.643,2.548q4.368,3.459,2,8.918-4.186,9.464-8.19,18.746t-7.826,18.746a92.581,92.581,0,0,0-3.367,10.283q-1.365,5.187-2.638,10.465a17.37,17.37,0,0,0-.637,5.369,39.777,39.777,0,0,1-.273,5.915,27.017,27.017,0,0,0,9.009-4.823,54.171,54.171,0,0,0,6.46-6.461q4.733-5.824,9.282-11.739t9.1-11.921q2.548-3.639,5.1-4.277t6.188,1.365a10.073,10.073,0,0,1,4.011,4.311,198.686,198.686,0,0,1,9.639-19.053,86.21,86.21,0,0,1,17.836-21.658q1.276-1.092,2.549-2l2.548-1.82a20.371,20.371,0,0,1,7.007-3.458,18.325,18.325,0,0,1,7.007-.455,25.052,25.052,0,0,1,6.643,1.82,25.533,25.533,0,0,1,5.916,3.548q.545.364,1,.729t1.365,1.092q1.274-1.638,2.457-3.276t2.275-3.094a11.086,11.086,0,0,1,4.914-3.822q2.365-.727,5.642.91a10.042,10.042,0,0,1,4.732,4.641,7.956,7.956,0,0,1,.182,6.461,59.145,59.145,0,0,1-2.548,6.1q-1.456,3-2.912,6.1-5.279,12.011-10.648,23.841t-10.647,23.842a11.187,11.187,0,0,0-.545,1.729q-.182.818-.547,2.638,2-1.456,3.276-2.366l2.548-1.82q8.554-6.371,16.835-12.741t16.835-12.557a9.166,9.166,0,0,1,5.823-2,7.586,7.586,0,0,1,5.279,1.82,10.646,10.646,0,0,1,3.1,3.7q1.042-2.354,2.086-4.7,6.278-14.1,12.649-28.3.909-2.548,2-4.914a17.617,17.617,0,0,0,1.456-4.914,5.626,5.626,0,0,1,2.912-4.458,7.268,7.268,0,0,1,5.46-.274,11.3,11.3,0,0,1,6.188,4.551,7.754,7.754,0,0,1,.91,7.1,98.911,98.911,0,0,1-3.459,9.464q-2,4.733-4,9.464a23.137,23.137,0,0,1-2,4.186q6.916-6.371,13.286-12.195t12.74-11.284a108.952,108.952,0,0,1,9.555-6.825q5.006-3.185,9.919-6.279a11.527,11.527,0,0,1,7.1-2,13.707,13.707,0,0,1,6.916,2.184,14.286,14.286,0,0,1,4.913,5.46,12.1,12.1,0,0,1,1.092,7.826q-.545,2.912-1.365,5.733a31.767,31.767,0,0,1-2.093,5.369q-4.733,9.283-9.555,18.382t-9.556,18.382a73.6,73.6,0,0,0-4.095,10.011,28.161,28.161,0,0,0-.82,12.376q2.73-2.185,4.914-3.822a37.261,37.261,0,0,0,4-3.459q8.008-7.643,15.652-15.379t15.47-15.561q3.094-3.276,5.915-3.64a9.61,9.61,0,0,1,6.279,1.82q3.639,2.548,4.095,5.824t-2.639,6.37q-8.917,9.1-17.744,17.928t-18.11,17.562a27.276,27.276,0,0,1-6.643,4.369,15.991,15.991,0,0,1-8.1,1.273,38.433,38.433,0,0,1-8.372-1.911,18,18,0,0,1-6.552-4,15.589,15.589,0,0,1-4-6.825,27.674,27.674,0,0,1-.728-10.374,57.808,57.808,0,0,1,3.458-14.014,112.618,112.618,0,0,1,6.006-12.922q2.912-5.279,5.642-10.374t5.642-10.374a13.8,13.8,0,0,0,.91-2.367,6.61,6.61,0,0,0,0-3.094q-3.641,3.276-7.553,6.371t-7.552,6.552q-11.466,10.92-21.84,22.931t-20.02,24.752q-2.183,3.094-4.277,6.279t-4.095,6.279q-2.183,3.639-3.913,4.55t-4.823,0a11.988,11.988,0,0,1-5.824-3.64,7.355,7.355,0,0,1-1.82-5.824,78.958,78.958,0,0,1,1.546-8.1A57.757,57.757,0,0,1-3497.622-68q3.093-7.187,6.21-14.307Q-3503.069-73.7-3514.548-65q-11.647,8.827-23.3,17.928-6.916,5.642-14.014,11.83a7.939,7.939,0,0,0-1.82,2.184,24.942,24.942,0,0,0-1.274,2.548q-3.457,9.828-6.734,19.565T-3568.6,8.618a66.535,66.535,0,0,1-7.736,14.56A37.125,37.125,0,0,1-3588.8,34.1a24.812,24.812,0,0,1-9.464,3.094,26.366,26.366,0,0,1-2.916.164A24.173,24.173,0,0,1-3607.732,36.464Zm18.838-42.133q-4.824,4.095-9.556,8.1a24.639,24.639,0,0,0-5,5.46A52.787,52.787,0,0,0-3607,14.26a15.355,15.355,0,0,0-1.547,4.1,7.006,7.006,0,0,0,.819,4.64,18.517,18.517,0,0,0,8.646-1.638,19.752,19.752,0,0,0,6.825-5.278,51.142,51.142,0,0,0,8.28-14.015,132.831,132.831,0,0,0,5.187-16.379Q-3584.072-9.763-3588.895-5.669Zm38.947-118.209q-2.092,1.456-4.095,2.912a52.333,52.333,0,0,0-12.376,13.741q-4.913,7.916-9.463,15.924a85.506,85.506,0,0,0-5.369,10.829,57.481,57.481,0,0,0-3.367,11.558q-.364,1.638-.819,3.185a8.021,8.021,0,0,0-.273,3.185,9.009,9.009,0,0,0,.546,3,6.44,6.44,0,0,0,1.457,2.457,2.255,2.255,0,0,0,2.912.364,22.631,22.631,0,0,0,2.73-2q.91-.909,1.546-1.638t1.366-1.639q7.825-10.373,14.559-21.111t12.741-22.2a29.877,29.877,0,0,0,3.093-9.372,46.191,46.191,0,0,0,.364-10.1,11.452,11.452,0,0,0-1.785-.149A6.437,6.437,0,0,0-3549.947-123.878ZM-3747.236-44.89a31.11,31.11,0,0,1-13.195-10.737q-7.684-10.655-3.8-22.481-3.752,4.488-7.662,8.74a80.54,80.54,0,0,1-16.562,13.741q-4.186,2.548-8.554,4.913a77.407,77.407,0,0,1-9.1,4.186,35.526,35.526,0,0,1-15.834,2.457,32.283,32.283,0,0,1-15.106-5.369,23.757,23.757,0,0,1-8.463-9.1,29.414,29.414,0,0,1-3.185-12.013,53.956,53.956,0,0,1,.546-13.285,80.6,80.6,0,0,1,3.276-12.923q2.548-7.461,5.55-14.377a48.742,48.742,0,0,1,8.1-12.741,139.727,139.727,0,0,1,10.374-10.374,19.717,19.717,0,0,1,10.283-5,29.024,29.024,0,0,1,11.375.637,16.928,16.928,0,0,1,10.283,6.46,16.714,16.714,0,0,1,3.185,11.739,55.722,55.722,0,0,1-7.1,22.932,35.689,35.689,0,0,1-6.553,7.826,39.356,39.356,0,0,1-8.917,6.1,34.492,34.492,0,0,1-10.374,3.275,27.772,27.772,0,0,1-10.738-.455,3.711,3.711,0,0,0-1.183-.182,5.634,5.634,0,0,1-1.365-.181,34.616,34.616,0,0,0-1.82,8.462,20.264,20.264,0,0,0,1.092,8.463q1.274,5.278,7.1,6.005a21.65,21.65,0,0,0,9.919-1.183,91.9,91.9,0,0,0,9.009-3.913,67.46,67.46,0,0,0,17.381-12.376q7.553-7.462,14.469-15.653l1.092-1.456a19.21,19.21,0,0,0,1.092-1.638q3.276-3.823,7.371-3.64t7.007,4.368a10.643,10.643,0,0,1,.986,1.624q.325-.543.652-1.078,2.183-3.457,5.187-3.913a8.5,8.5,0,0,1,6.279,1.912q3.457,2.366,3.913,5.1t-1.547,6.37q-1.456,2.367-2.73,4.641a50.864,50.864,0,0,0-2.365,4.823,16.035,16.035,0,0,0-1.82,5.461,10.494,10.494,0,0,0,.181,5.823,9.406,9.406,0,0,0,3.822,4.732,8.218,8.218,0,0,0,5.734,1.729,12.164,12.164,0,0,0,5.55-1.911,25.221,25.221,0,0,0,9.1-10.466,31.4,31.4,0,0,0,2.548-13.741,9.354,9.354,0,0,0-1.638-5.46,31.643,31.643,0,0,0-3.64-4.368l-2.73-2.73a31.45,31.45,0,0,1-2.549-2.912,25.248,25.248,0,0,1-4.55-10.648,17.163,17.163,0,0,1,2.366-11.375,43.524,43.524,0,0,1,9.919-12.558,33.462,33.462,0,0,1,14.651-7.1,17.929,17.929,0,0,1,4.368-.547,30.39,30.39,0,0,1,11.921,2.639,17.686,17.686,0,0,1,8.462,8.827,12.973,12.973,0,0,1,1.184,5.46,27.789,27.789,0,0,1-.637,6.644,30.052,30.052,0,0,1-2.184,6.461,20.962,20.962,0,0,1-3.458,5.278q-5.1,5.278-11.466.546-3.094-2.183-3.459-4.732t1.639-6.188a35.338,35.338,0,0,0,2.457-4.732q1-2.366,2.093-4.914a10.886,10.886,0,0,1-1.092-1.456,27.358,27.358,0,0,1-2.73.546,27.1,27.1,0,0,0-2.73.547,29.4,29.4,0,0,0-14.742,14.2q-2.732,5.642,1.638,10.01l4.914,4.914a31.846,31.846,0,0,1,6.825,12.831,28.629,28.629,0,0,1-.273,14.469,7.139,7.139,0,0,0-.364,2.275,18.81,18.81,0,0,1-.365,3.185q3.459-2,6.371-3.549a36.6,36.6,0,0,0,5.46-3.549q6.916-5.1,13.377-10.465a79.129,79.129,0,0,0,11.739-12.1,10.14,10.14,0,0,1,3.276-3,5.6,5.6,0,0,1,4.368-.273,10.023,10.023,0,0,1,7.644,6.005,5.322,5.322,0,0,1,.364,3.822,7.747,7.747,0,0,1-2,3.276q-3.641,3.822-7.28,7.644a84.1,84.1,0,0,1-7.644,7.1q-4.55,3.823-9.373,7.281t-9.555,6.733a59.119,59.119,0,0,1-18.565,8.281,147.009,147.009,0,0,1-20.019,3.549,39.26,39.26,0,0,1-3.982.207A32.62,32.62,0,0,1-3747.236-44.89Zm-62.335-76.986a43.43,43.43,0,0,0-7.552,7.1,51.546,51.546,0,0,0-6.279,9.373,44.517,44.517,0,0,0-4,10.647,12.424,12.424,0,0,0,9.1-1.456,28.289,28.289,0,0,0,8.462-7.1,37.731,37.731,0,0,0,6.006-10.465,29.389,29.389,0,0,0,2.093-11.557A17.69,17.69,0,0,0-3809.57-121.876Zm-153.516,75.439q-3.914-3.73-3.914-11.01a28.229,28.229,0,0,1,1.274-8.918q6.369-20.565,13.649-40.586t15.47-39.858q3.639-8.554,7.644-16.834t7.826-16.835q.363-.909.728-1.911t1.273-3q-2.912,1.456-5,2.549t-3.913,2.183a111.959,111.959,0,0,0-11.284,8.191,39.669,39.669,0,0,0-8.918,10.555q-3.275,5.279-9.645,1.82a10.042,10.042,0,0,1-4.733-4.64,7.152,7.152,0,0,1-.181-6.1,21.241,21.241,0,0,1,4.368-6.37,89.037,89.037,0,0,1,21.658-17.473,81.161,81.161,0,0,1,26.027-9.282,70.555,70.555,0,0,1,16.744-.91,53.808,53.808,0,0,1,16.562,3.822,39,39,0,0,1,16.289,12.1q5.915,7.734,7.371,19.2a63.458,63.458,0,0,1,.365,16.562q-.911,8.007-1.82,16.38a80.879,80.879,0,0,1-5.369,21.566q-4.095,10.1-9.374,20.293a91.369,91.369,0,0,1-18.836,24.662,212.905,212.905,0,0,1-24.3,19.2,40.519,40.519,0,0,1-10.465,5,48.556,48.556,0,0,1-11.557,2.093q-4.188.364-8.373.547l-8.372.363q-.647.032-1.269.032Q-3959.523-43.037-3963.087-46.437Zm63.79-143.689q-1.819,4.733-3.458,9.191t-3.64,9.009q-3.821,8.736-8.008,17.29t-7.825,17.472q-4.915,12.013-9.373,24.206t-9.009,24.389q-2.73,7.279-5.187,14.651t-5,15.2a80.614,80.614,0,0,0,8.827.546,31.891,31.891,0,0,0,7.1-.728,31.208,31.208,0,0,0,5.823-1.911,37.02,37.02,0,0,0,5.369-3,189.137,189.137,0,0,0,22.2-17.654,82.985,82.985,0,0,0,17.107-22.75q4.733-9.464,8.463-18.928a86.67,86.67,0,0,0,5.187-20.02q1.092-8.735,1.729-17.381a51.591,51.591,0,0,0-1.729-17.381,14.861,14.861,0,0,0-9.464-10.555,40.8,40.8,0,0,0-9.464-2.094q-1.577-.151-3.174-.151A35.511,35.511,0,0,0-3899.3-190.126Zm278.643,45.318a10.162,10.162,0,0,1-6.188-3.367,7.831,7.831,0,0,1-2.183-6.279,10.447,10.447,0,0,1,2.912-6.733,6.851,6.851,0,0,1,5.823-2.184,10.37,10.37,0,0,1,6.279,3.458,7.732,7.732,0,0,1,2.275,6.189,11.545,11.545,0,0,1-3,6.734,6.812,6.812,0,0,1-5.065,2.229A8.1,8.1,0,0,1-3620.654-144.808Zm-162.9-164.059c62.216,5.154,39.931-60.927,97.495-61.537l24.929,20.806c3.807,46.027-29.228,70.137-63.838,70.14C-3746.829-279.457-3769.317-289.075-3783.552-308.867Zm145.062-3.025c29.758-8.437,62.446-27.425,48.083-54.145,6.1-5.277,12.044-12.221,18.27-21.512,37.91,48.624-13.713,98.986-84.989,107A83.82,83.82,0,0,0-3638.491-311.891Zm-161.026-25.527a162.125,162.125,0,0,1-38.29-103.557c-.7-89.872,71.615-163.264,161.447-164.01,54.173-.719,97.2,23.994,110.894,54.145l-22.555,19.749c-.231-20.915-36.052-47.038-88.109-46.754-74.788.61-135.147,61.917-134.549,136.652a135.313,135.313,0,0,0,46.7,101.007c-3.96,4.247-11.044,6.762-18.851,6.761A36.747,36.747,0,0,1-3799.517-337.418Zm129.762-48.815c6.728-32.023,6.823-40.894,27.6-60.317,26.3-24.564,115.439-102.065,115.439-102.065,7.406-6.239,18.013,2.577,13.224,11.027,0,0-59.937,101.848-79.292,132.217-15.285,24.02-23.979,25.716-54.186,38.127Zm-100.234-28.646a27.122,27.122,0,0,1,26.883-27.344,27.128,27.128,0,0,1,27.33,26.923,27.1,27.1,0,0,1-26.937,27.331h-.226A27.043,27.043,0,0,1-3769.989-414.879Zm13.618-81.436a27.045,27.045,0,0,1,26.91-27.276,27.026,27.026,0,0,1,27.29,26.883,27.087,27.087,0,0,1-26.87,27.345h-.2A27.125,27.125,0,0,1-3756.371-496.314Zm81.326-27.059a27.076,27.076,0,0,1,26.924-27.33,27.192,27.192,0,0,1,27.331,26.9,27.182,27.182,0,0,1-26.924,27.331h-.25A27.071,27.071,0,0,1-3675.045-523.373Z" transform="translate(3967.5 605.501)" fill="#ff5757" stroke="rgba(0,0,0,0)" stroke-miterlimit="10" stroke-width="1"/></svg>